<svg xmlns="http://www.w3.org/2000/svg" viewBox="0 0 100 100" width="100" height="100">
  <!-- Apple body -->
  <path d="M50 90 C20 90 5 65 5 45 C5 25 20 15 35 15 C42 15 47 18 50 22 C53 18 58 15 65 15 C80 15 95 25 95 45 C95 65 80 90 50 90Z" fill="#c0392b"/>
  <!-- Bite mark -->
  <circle cx="88" cy="45" r="18" fill="#0a0a1a"/>
  <!-- Stem -->
  <path d="M50 18 C50 8 55 2 60 0" stroke="#5d4037" stroke-width="3" fill="none" stroke-linecap="round"/>
  <!-- Leaf -->
  <path d="M55 10 C62 4 72 6 68 14 C64 10 58 12 55 10Z" fill="#27ae60"/>
</svg>
